<svg width="198" height="35" viewBox="0 0 198 35" fill="none" xmlns="http://www.w3.org/2000/svg">
<path d="M113.29 26.9918H118.794L122.755 12.8446H122.83L126.86 26.9918H132.546L138.231 8.4563H133.624L129.775 22.171H129.7L125.67 8.4563H120.059L116.317 22.171H116.237L112.137 8.4563H107.028L113.29 26.9918Z" fill="#75BEE9"/>
<path d="M158.406 21.4185C158.406 25.0861 160.493 27.4244 164.278 27.4244C165.481 27.4515 166.682 27.3077 167.844 26.9973L167.695 23.1802C167.023 23.5398 166.267 23.713 165.506 23.6821C163.67 23.6821 163.237 22.2086 163.237 20.6231V11.9906H167.508V8.46184H163.237V3.20337L158.432 4.75155V8.48853H154.872V12.0173H158.432L158.406 21.4185Z" fill="#75BEE9"/>
<path fill-rule="evenodd" clip-rule="evenodd" d="M183.518 22.0271C181.658 23.1801 179.528 23.8245 177.341 23.8956C174.357 23.8956 172.27 22.2086 172.051 19.219H184.863C184.863 12.7434 182.92 8.00806 176.049 8.00806C170.289 8.00806 167.444 12.4337 167.444 17.799C167.444 23.8742 171.004 27.4084 177.128 27.4084C179.343 27.4785 181.539 26.9687 183.497 25.9296L183.518 22.0271ZM172.072 15.9091C172.291 13.4213 173.674 11.5529 176.343 11.5529C179.012 11.5529 180.123 13.5708 180.267 15.9091H172.072Z" fill="#75BEE9"/>
<path d="M186.609 26.9971H191.414V20.1957C191.414 17.5265 191.414 12.6364 195.332 12.6364C196.074 12.6041 196.812 12.7391 197.494 13.0314V8.14663C197.01 8.0335 196.513 7.98681 196.016 8.00783C193.138 8.00783 191.158 10.9173 190.944 12.647H190.875V8.44025H186.604L186.609 26.9971Z" fill="#75BEE9"/>
<path fill-rule="evenodd" clip-rule="evenodd" d="M139.918 13.5599C141.562 12.2954 143.567 11.5901 145.641 11.5472C148.486 11.5472 149.821 12.5562 149.821 15.5405H147.152C145.139 15.5405 142.763 15.722 140.927 16.6082C139.091 17.4944 137.761 19.1226 137.761 21.8987C137.761 25.4221 140.964 27.4027 144.237 27.4027C146.431 27.4027 148.844 26.2496 149.96 24.1996H150.035C150.051 25.1266 150.122 26.0518 150.248 26.9703H154.519C154.407 25.5289 154.337 24.237 154.3 22.8329C154.263 21.4289 154.231 20.0622 154.231 18.1884V15.8127C154.231 10.3407 151.887 8.00244 146.223 8.00244C144.003 8.03459 141.812 8.51203 139.779 9.40648L139.918 13.5599ZM142.379 21.1673C142.379 20.1762 142.773 19.2257 143.474 18.5249C144.174 17.824 145.125 17.4303 146.116 17.4303H149.853V21.1673C149.767 22.0946 149.338 22.9563 148.649 23.5836C147.961 24.211 147.063 24.5587 146.132 24.5587C145.201 24.5587 144.303 24.211 143.615 23.5836C142.926 22.9563 142.497 22.0946 142.411 21.1673" fill="#75BEE9"/>
<path fill-rule="evenodd" clip-rule="evenodd" d="M2.16745 13.5599C3.81049 12.2937 5.81649 11.5882 7.89038 11.5472C10.7358 11.5472 12.0651 12.5562 12.0651 15.5405H9.39585C7.37788 15.5405 5.00222 15.722 3.1711 16.6082C1.33998 17.4944 0 19.1226 0 21.8987C0 25.4221 3.20313 27.4027 6.481 27.4027C8.67515 27.4027 11.0882 26.2496 12.2039 24.1996H12.2733C12.2899 25.1266 12.3613 26.0518 12.4869 26.9703H16.7577C16.6509 25.5289 16.5762 24.237 16.5442 22.8329C16.5121 21.4289 16.4694 20.0622 16.4694 18.1884V15.8127C16.4694 10.3407 14.1311 8.00244 8.46161 8.00244C6.24309 8.03414 4.05359 8.51162 2.02331 9.40648L2.16745 13.5599ZM4.62319 21.1673C4.62319 20.1762 5.0169 19.2257 5.71772 18.5249C6.41855 17.824 7.36906 17.4303 8.36017 17.4303H12.0972V21.1673C12.0972 22.1584 11.7034 23.1089 11.0026 23.8098C10.3018 24.5106 9.35128 24.9043 8.36017 24.9043C7.36906 24.9043 6.41855 24.5106 5.71772 23.8098C5.0169 23.1089 4.62319 22.1584 4.62319 21.1673" fill="#0072BC"/>
<path d="M19.0264 26.9969H23.8311V17.9214C23.8311 15.5511 24.5838 11.7714 28.1019 11.7714C31.1983 11.7714 31.2356 14.8304 31.2356 17.1099V27.0129H36.0403V15.2948C36.0403 11.1201 34.1345 8.02905 29.7408 8.02905C27.221 8.02905 25.171 8.85653 23.6602 10.9759H23.5908V8.46147H19.0264V26.9969Z" fill="#0072BC"/>
<path fill-rule="evenodd" clip-rule="evenodd" d="M51.2608 8.46147V10.9759H51.1914C49.8568 8.84052 47.9509 8.02905 45.5059 8.02905C39.9591 8.02905 37.6582 13.1754 37.6582 17.6384C37.6582 22.6033 39.7456 26.9969 45.2123 26.9969C47.9136 26.9969 50.0703 25.6249 50.9726 24.0447H51.0473C51.0473 27.2478 50.791 31.2411 45.4685 31.2411C43.9524 31.2411 41.5447 30.4136 40.0712 29.6395L39.6708 33.7395C41.6994 34.5874 43.8785 35.016 46.0771 34.9994C53.85 34.9994 55.868 30.2481 55.868 25.2085V8.46147H51.2608ZM46.7978 23.2546C44.0271 23.2546 42.6925 20.1529 42.6925 17.6384C42.6925 14.793 43.7602 11.766 47.0113 11.766C49.8194 11.766 51.0473 14.3552 51.0473 17.521C51.0473 20.6868 49.8194 23.2493 46.7765 23.2493" fill="#0072BC"/>
<path d="M63.5929 0H58.7668V26.9971H63.5929V0Z" fill="#0072BC"/>
<path fill-rule="evenodd" clip-rule="evenodd" d="M66.6035 5.07714H71.4082V0.469971H66.6035V5.07714ZM66.6035 26.9972H71.4082V8.46178H66.6035V26.9972Z" fill="#0072BC"/>
<path fill-rule="evenodd" clip-rule="evenodd" d="M75.3164 13.5599C76.9604 12.2954 78.9658 11.5901 81.0394 11.5472C83.8848 11.5472 85.2195 12.5562 85.2195 15.5405H82.5502C80.5375 15.5405 78.1619 15.722 76.3254 16.6082C74.489 17.4944 73.1597 19.1226 73.1597 21.8987C73.1597 25.4221 76.3628 27.4027 79.6407 27.4027C80.7898 27.4115 81.9215 27.1208 82.9241 26.5591C83.9266 25.9974 84.7656 25.1842 85.3583 24.1996H85.433C85.4442 25.1268 85.5155 26.0523 85.6465 26.9703H89.9174C89.8106 25.5289 89.7359 24.237 89.6985 22.8329C89.6611 21.4289 89.6291 20.0622 89.6291 18.1884V15.8127C89.6291 10.3407 87.2855 8.00244 81.6213 8.00244C79.4011 8.03459 77.2099 8.51203 75.1776 9.40648L75.3164 13.5599ZM77.7775 21.1673C77.7775 20.1762 78.1712 19.2257 78.872 18.5249C79.5729 17.824 80.5234 17.4303 81.5145 17.4303H85.2515V21.1673C85.1654 22.0946 84.7361 22.9563 84.0478 23.5836C83.3595 24.211 82.4618 24.5587 81.5305 24.5587C80.5992 24.5587 79.7015 24.211 79.0132 23.5836C78.3249 22.9563 77.8957 22.0946 77.8095 21.1673" fill="#0072BC"/>
<path d="M92.1808 26.9969H96.9855V17.9214C96.9855 15.5511 97.7382 11.7714 101.23 11.7714C104.326 11.7714 104.363 14.8304 104.363 17.1099V27.0129H109.168V15.2948C109.168 11.1201 107.262 8.02905 102.869 8.02905C100.349 8.02905 98.2988 8.85653 96.7879 10.9759H96.7292V8.46147H92.1594L92.1808 26.9969Z" fill="#0072BC"/>
</svg>
